# xmcd
#
# Track frame offsets:
#	150
#	13252
#	25059
#	42219
#	57720
#	72322
#	82070
#	95951
#	109494
#	116717
#	131058
#	139010
#	148025
#	157117
#
# Disc length: 2239 seconds
#
# Revision: 0
# Processed by: cddbd v1.5.1PL0 Copyright (c) Steve Scherf et al.
# Submitted via: EasyCDDAExtractor 8.2.3.1
#
DISCID=dc08bd0e
DTITLE=Perry Como - A Collection Of His Greatest Hits
DYEAR=2004
DGENRE=Blues
TTITLE0=The Feeling In The Moonlight
TTITLE1=Love Letters
TTITLE2=Forget Me Nots In Your Eyes
TTITLE3=Goodbye Sue
TTITLE4=Prisoner Of Love
TTITLE5=Love Is The Sweetest Thing
TTITLE6=Garden In The Rain
TTITLE7=I'm Always Chasing Rainbows
TTITLE8=My Dreams Are Getting Better All The Time
TTITLE9=Girl Of My Dreams
TTITLE10=That Moon's In My Heart
TTITLE11=Wouldn't It Be Nice
TTITLE12=Like Someone In Love
TTITLE13=Now Is The Hour
EXTD=
EXTT0=
EXTT1=
EXTT2=
EXTT3=
EXTT4=
EXTT5=
EXTT6=
EXTT7=
EXTT8=
EXTT9=
EXTT10=
EXTT11=
EXTT12=
EXTT13=
PLAYORDER=
